<svg width="77" height="31" viewBox="0 0 77 31" fill="none" xmlns="http://www.w3.org/2000/svg">
<path d="M11.73 3.32C11.31 3.6 10.94 4.12 10.62 4.88C10.32 5.64 10.06 6.51 9.84 7.49C9.64 8.47 9.49 9.5 9.39 10.58C9.29 11.66 9.24 12.68 9.24 13.64C9.24 15.08 9.34 16.25 9.54 17.15C9.76 18.05 10.02 18.75 10.32 19.25C10.64 19.75 10.97 20.09 11.31 20.27C11.67 20.43 11.99 20.51 12.27 20.51C12.87 20.51 13.39 20.24 13.83 19.7C14.29 19.14 14.67 18.4 14.97 17.48C15.29 16.56 15.52 15.51 15.66 14.33C15.82 13.13 15.9 11.89 15.9 10.61C15.9 8.79 15.75 7.31 15.45 6.17C15.17 5.03 14.78 4.14 14.28 3.5C13.78 2.86 13.19 2.43 12.51 2.21C11.85 1.99 11.15 1.88 10.41 1.88C9.45 1.88 8.54 2.03 7.68 2.33C6.82 2.61 6.07 3.03 5.43 3.59C4.79 4.15 4.28 4.84 3.9 5.66C3.54 6.48 3.36 7.41 3.36 8.45C3.36 9.19 3.44 9.76 3.6 10.16C3.76 10.54 3.95 10.89 4.17 11.21C3.03 11.21 2.13 10.96 1.47 10.46C0.83 9.94 0.51 9.12 0.51 8C0.51 6.98 0.78 6.02 1.32 5.12C1.88 4.2 2.63 3.4 3.57 2.72C4.51 2.04 5.61 1.5 6.87 1.1C8.15 0.699999 9.51 0.499998 10.95 0.499998C12.69 0.499998 14.15 0.789999 15.33 1.37C16.51 1.95 17.45 2.74 18.15 3.74C18.85 4.74 19.35 5.9 19.65 7.22C19.95 8.54 20.1 9.93 20.1 11.39C20.1 12.27 20.05 13.17 19.95 14.09C19.85 15.01 19.67 15.91 19.41 16.79C19.17 17.65 18.85 18.47 18.45 19.25C18.05 20.03 17.55 20.71 16.95 21.29C16.35 21.87 15.64 22.33 14.82 22.67C14 23.01 13.06 23.18 12 23.18C11.04 23.18 10.12 23.02 9.24 22.7C8.38 22.38 7.61 21.85 6.93 21.11C6.27 20.37 5.74 19.4 5.34 18.2C4.96 16.98 4.77 15.47 4.77 13.67C4.77 12.59 4.85 11.43 5.01 10.19C5.19 8.95 5.49 7.81 5.91 6.77C6.33 5.71 6.89 4.83 7.59 4.13C8.29 3.43 9.16 3.08 10.2 3.08C10.42 3.08 10.66 3.1 10.92 3.14C11.18 3.16 11.45 3.22 11.73 3.32ZM26.648 6.89V9.14C26.988 8.78 27.418 8.48 27.938 8.24C28.458 7.98 29.088 7.85 29.828 7.85C30.508 7.85 31.148 7.98 31.748 8.24C32.368 8.5 32.908 8.92 33.368 9.5C33.848 10.06 34.228 10.81 34.508 11.75C34.788 12.69 34.928 13.83 34.928 15.17C34.928 16.13 34.838 17.09 34.658 18.05C34.498 19.01 34.208 19.87 33.788 20.63C33.368 21.39 32.798 22.01 32.078 22.49C31.378 22.95 30.498 23.18 29.438 23.18C28.678 23.18 28.078 23.08 27.638 22.88C27.198 22.66 26.868 22.41 26.648 22.13V29.42L22.328 30.5V6.89H26.648ZM27.998 20.57C28.518 20.57 28.958 20.4 29.318 20.06C29.678 19.7 29.958 19.24 30.158 18.68C30.378 18.12 30.528 17.5 30.608 16.82C30.708 16.12 30.758 15.43 30.758 14.75C30.758 13.65 30.658 12.78 30.458 12.14C30.278 11.5 30.058 11.03 29.798 10.73C29.538 10.41 29.278 10.21 29.018 10.13C28.778 10.05 28.588 10.01 28.448 10.01C28.088 10.01 27.738 10.14 27.398 10.4C27.058 10.64 26.808 11.01 26.648 11.51V19.88C26.748 20.04 26.908 20.2 27.128 20.36C27.348 20.5 27.638 20.57 27.998 20.57ZM36.0312 4.01C36.0312 3.35 36.2612 2.79 36.7212 2.33C37.1812 1.85 37.7412 1.61 38.4012 1.61C39.0612 1.61 39.6212 1.85 40.0812 2.33C40.5612 2.79 40.8012 3.35 40.8012 4.01C40.8012 4.67 40.5612 5.23 40.0812 5.69C39.6212 6.15 39.0612 6.38 38.4012 6.38C37.7412 6.38 37.1812 6.15 36.7212 5.69C36.2612 5.23 36.0312 4.67 36.0312 4.01ZM40.6812 8V18.2C40.6812 19.04 40.7912 19.6 41.0112 19.88C41.2512 20.14 41.6612 20.27 42.2412 20.27C42.5012 20.27 42.6912 20.25 42.8112 20.21C42.9512 20.17 43.0712 20.13 43.1712 20.09C43.1912 20.19 43.2012 20.29 43.2012 20.39C43.2012 20.49 43.2012 20.59 43.2012 20.69C43.2012 21.19 43.1112 21.6 42.9312 21.92C42.7712 22.24 42.5512 22.5 42.2712 22.7C42.0112 22.88 41.7212 23 41.4012 23.06C41.1012 23.14 40.8112 23.18 40.5312 23.18C38.9912 23.18 37.9112 22.76 37.2912 21.92C36.6712 21.06 36.3612 19.93 36.3612 18.53V8H40.6812ZM63.4261 4.28C63.4261 5.04 63.2561 5.66 62.9161 6.14C62.5961 6.6 62.1261 6.83 61.5061 6.83C60.9461 6.83 60.4461 6.62 60.0061 6.2C60.2861 6 60.4961 5.71 60.6361 5.33C60.7961 4.95 60.8761 4.56 60.8761 4.16C60.8761 3.54 60.6761 3.03 60.2761 2.63C59.8761 2.23 59.2661 2.03 58.4461 2.03C57.5461 2.03 56.8961 2.28 56.4961 2.78C56.0961 3.28 55.8961 3.95 55.8961 4.79C55.8961 5.77 56.1261 6.57 56.5861 7.19C57.0661 7.81 57.6561 8.37 58.3561 8.87C59.0561 9.35 59.8061 9.81 60.6061 10.25C61.4261 10.69 62.1861 11.21 62.8861 11.81C63.5861 12.41 64.1661 13.14 64.6261 14C65.1061 14.84 65.3461 15.92 65.3461 17.24C65.3461 18.36 65.1561 19.32 64.7761 20.12C64.4161 20.92 63.9161 21.58 63.2761 22.1C62.6361 22.6 61.8761 22.96 60.9961 23.18C60.1161 23.42 59.1561 23.54 58.1161 23.54C57.1961 23.54 56.2861 23.44 55.3861 23.24C54.5061 23.06 53.7161 22.76 53.0161 22.34C52.3361 21.9 51.7861 21.33 51.3661 20.63C50.9461 19.91 50.7361 19.04 50.7361 18.02C50.7361 17.34 50.8261 16.72 51.0061 16.16C51.2061 15.6 51.4661 15.13 51.7861 14.75C52.1261 14.37 52.5161 14.08 52.9561 13.88C53.3961 13.66 53.8561 13.55 54.3361 13.55C54.5761 13.55 54.8361 13.58 55.1161 13.64C55.3961 13.7 55.6761 13.81 55.9561 13.97C56.2361 14.11 56.4961 14.31 56.7361 14.57C56.9761 14.83 57.1661 15.15 57.3061 15.53C56.9461 15.53 56.5861 15.57 56.2261 15.65C55.8661 15.73 55.5361 15.87 55.2361 16.07C54.9561 16.27 54.7261 16.55 54.5461 16.91C54.3661 17.25 54.2761 17.69 54.2761 18.23C54.2761 19.27 54.5961 20.02 55.2361 20.48C55.8761 20.92 56.6761 21.14 57.6361 21.14C58.5961 21.14 59.3361 20.91 59.8561 20.45C60.3761 19.99 60.6361 19.2 60.6361 18.08C60.6361 17.04 60.4161 16.16 59.9761 15.44C59.5561 14.72 59.0161 14.09 58.3561 13.55C57.6961 13.01 56.9861 12.51 56.2261 12.05C55.4861 11.57 54.7861 11.06 54.1261 10.52C53.4661 9.96 52.9161 9.31 52.4761 8.57C52.0561 7.83 51.8461 6.92 51.8461 5.84C51.8461 4.1 52.4261 2.78 53.5861 1.88C54.7461 0.959998 56.3261 0.499998 58.3261 0.499998C58.6061 0.499998 59.0261 0.529998 59.5861 0.589999C60.1661 0.629998 60.7361 0.779998 61.2961 1.04C61.8761 1.28 62.3761 1.66 62.7961 2.18C63.2161 2.68 63.4261 3.38 63.4261 4.28ZM73.485 20.33C74.065 20.33 74.645 20.17 75.225 19.85C75.805 19.53 76.295 19.16 76.695 18.74C76.695 19.6 76.585 20.32 76.365 20.9C76.165 21.46 75.875 21.91 75.495 22.25C75.115 22.59 74.665 22.83 74.145 22.97C73.645 23.11 73.085 23.18 72.465 23.18C71.605 23.18 70.805 23.06 70.065 22.82C69.345 22.56 68.725 22.15 68.205 21.59C67.685 21.03 67.275 20.31 66.975 19.43C66.675 18.55 66.525 17.48 66.525 16.22C66.525 15.38 66.615 14.47 66.795 13.49C66.995 12.51 67.325 11.61 67.785 10.79C68.245 9.95 68.865 9.25 69.645 8.69C70.445 8.13 71.445 7.85 72.645 7.85C73.645 7.85 74.415 8 74.955 8.3C75.495 8.58 75.895 8.93 76.155 9.35C76.415 9.75 76.565 10.17 76.605 10.61C76.645 11.03 76.665 11.37 76.665 11.63C76.665 12.35 76.515 13.03 76.215 13.67C75.915 14.29 75.505 14.84 74.985 15.32C74.465 15.78 73.855 16.16 73.155 16.46C72.475 16.74 71.735 16.9 70.935 16.94C71.035 18.24 71.325 19.13 71.805 19.61C72.285 20.09 72.845 20.33 73.485 20.33ZM74.325 11.45C74.325 10.69 74.205 10.17 73.965 9.89C73.745 9.59 73.495 9.44 73.215 9.44C72.855 9.44 72.535 9.63 72.255 10.01C71.995 10.39 71.765 10.88 71.565 11.48C71.365 12.06 71.205 12.71 71.085 13.43C70.985 14.15 70.925 14.84 70.905 15.5C71.405 15.46 71.865 15.33 72.285 15.11C72.705 14.87 73.065 14.57 73.365 14.21C73.665 13.85 73.895 13.43 74.055 12.95C74.235 12.47 74.325 11.97 74.325 11.45Z" fill="#036666"/>
</svg>
