<svg width="1403" height="513" viewBox="0 0 1403 513" fill="none" xmlns="http://www.w3.org/2000/svg">
<path d="M1391.27 148C1392.43 158.751 1397 162 1397 162H1361C1361 162 1367 157.733 1367 142.8C1367 139.405 1368.26 136.15 1370.51 133.749C1372.77 131.349 1375.82 130 1379 130C1379.67 130 1380.34 130.061 1381 130.179" stroke="#EDEBDE" stroke-width="1.5" stroke-linecap="round" stroke-linejoin="round"/>
<path d="M1393 142C1396.31 142 1399 139.314 1399 136C1399 132.686 1396.31 130 1393 130C1389.69 130 1387 132.686 1387 136C1387 139.314 1389.69 142 1393 142Z" stroke="#EDEBDE" stroke-width="1.5" stroke-linecap="round" stroke-linejoin="round"/>
<path d="M1382.46 168C1382.11 168.606 1381.6 169.109 1381 169.459C1380.39 169.809 1379.7 169.993 1379 169.993C1378.3 169.993 1377.61 169.809 1377 169.459C1376.4 169.109 1375.89 168.606 1375.54 168" stroke="#EDEBDE" stroke-width="1.5" stroke-linecap="round" stroke-linejoin="round"/>
<path d="M1246 71.2146C1248.99 70.0442 1252 67.3778 1252 62C1252 54 1245.33 52 1242 52C1242 48 1242 40 1230 40C1218 40 1218 48 1218 52C1214.67 52 1208 54 1208 62C1208 67.3778 1211.01 70.0442 1214 71.2146" stroke="#EDEBDE" stroke-width="1.5" stroke-linecap="round" stroke-linejoin="round"/>
<path d="M1221.16 74.9748L1224.7 78.5104C1227.82 81.6346 1232.89 81.6346 1236.01 78.5104L1236.72 77.8032" stroke="#EDEBDE" stroke-width="1.5" stroke-linecap="round" stroke-linejoin="round"/>
<path d="M1221.87 79.9246L1221.16 74.9748L1226.11 75.682L1221.87 79.9246Z" stroke="#EDEBDE" stroke-width="1.5" stroke-linecap="round" stroke-linejoin="round"/>
<path d="M1238.6 69.8032L1235.06 66.2678C1231.94 63.1436 1226.87 63.1436 1223.75 66.2678L1223.04 66.9748" stroke="#EDEBDE" stroke-width="1.5" stroke-linecap="round" stroke-linejoin="round"/>
<path d="M1237.89 64.8536L1238.59 69.8034L1233.64 69.0962L1237.89 64.8536Z" stroke="#EDEBDE" stroke-width="1.5" stroke-linecap="round" stroke-linejoin="round"/>
<path d="M1285 367H1257C1254.79 367 1253 365.209 1253 363V345C1253 342.791 1254.79 341 1257 341H1285C1287.21 341 1289 342.791 1289 345V363C1289 365.209 1287.21 367 1285 367Z" stroke="#EDEBDE" stroke-width="1.5"/>
<path d="M1261 341V334.2C1261 333.537 1261.54 333 1262.2 333H1279.8C1280.46 333 1281 333.537 1281 334.2V341" stroke="#EDEBDE" stroke-width="1.5"/>
<path d="M1267 333V341" stroke="#EDEBDE" stroke-width="1.5"/>
<path d="M1271 333V341" stroke="#EDEBDE" stroke-width="1.5"/>
<path d="M1280 355C1279.45 355 1279 354.552 1279 354C1279 353.448 1279.45 353 1280 353C1280.55 353 1281 353.448 1281 354C1281 354.552 1280.55 355 1280 355Z" fill="#EDEBDE" stroke="#EDEBDE" stroke-width="1.5" stroke-linecap="round" stroke-linejoin="round"/>
<path d="M306.331 501.469H278.331C275.753 501.469 273.664 499.379 273.664 496.802V464.135C273.664 461.558 275.753 459.469 278.331 459.469H315.664C318.241 459.469 320.331 461.558 320.331 464.135V485.135" stroke="#EDEBDE" stroke-width="1.5" stroke-linecap="round"/>
<path d="M313.336 492.135V503.802" stroke="#EDEBDE" stroke-width="1.5" stroke-linecap="round" stroke-linejoin="round"/>
<path d="M320.336 492.135V503.802" stroke="#EDEBDE" stroke-width="1.5" stroke-linecap="round" stroke-linejoin="round"/>
<path d="M273.664 468.802H320.331" stroke="#EDEBDE" stroke-width="1.5" stroke-linecap="round" stroke-linejoin="round"/>
<path d="M280.664 464.159L280.687 464.133Z" fill="#EDEBDE"/>
<path d="M280.664 464.159L280.687 464.133" stroke="#EDEBDE" stroke-width="1.5" stroke-linecap="round" stroke-linejoin="round"/>
<path d="M287.664 464.159L287.687 464.133" stroke="#EDEBDE" stroke-width="1.5" stroke-linecap="round" stroke-linejoin="round"/>
<path d="M294.664 464.159L294.687 464.133" stroke="#EDEBDE" stroke-width="1.5" stroke-linecap="round" stroke-linejoin="round"/>
<path d="M87 278.269C87 276.501 84 273.469 84 273.469C84 273.469 81 276.501 81 278.269C81 280.036 82.3431 281.469 84 281.469C85.6569 281.469 87 280.036 87 278.269Z" stroke="#EDEBDE" stroke-width="1.5"/>
<path d="M84 266.469V270.469" stroke="#EDEBDE" stroke-width="1.5" stroke-linecap="round" stroke-linejoin="round"/>
<path d="M75.5 269.969L78.5 272.969" stroke="#EDEBDE" stroke-width="1.5" stroke-linecap="round" stroke-linejoin="round"/>
<path d="M89.5 272.969L92.5 269.969" stroke="#EDEBDE" stroke-width="1.5" stroke-linecap="round" stroke-linejoin="round"/>
<path d="M74 279.469H78" stroke="#EDEBDE" stroke-width="1.5" stroke-linecap="round" stroke-linejoin="round"/>
<path d="M90 279.469H94" stroke="#EDEBDE" stroke-width="1.5" stroke-linecap="round" stroke-linejoin="round"/>
<path d="M20 448.469V420.469M28 420.469H42.8C43.4628 420.469 44 421.006 44 421.669V447.269C44 447.932 43.4628 448.469 42.8 448.469H28V420.469ZM28 420.469V448.469V420.469ZM28 420.469H20H28ZM28 448.469H20H28ZM20 448.469H5.2C4.53726 448.469 4 447.932 4 447.269V421.669C4 421.006 4.53726 420.469 5.2 420.469H20V448.469Z" stroke="#EDEBDE" stroke-width="1.5" stroke-linecap="round" stroke-linejoin="round"/>
<path d="M12.7931 429.659L12.7931 429.659C12.9517 429.545 13.1036 429.556 13.234 429.639C13.3776 429.731 13.5 429.919 13.5 430.166V430.184V430.202V430.22V430.238V430.255V430.273V430.291V430.309V430.327V430.344V430.362V430.38V430.398V430.415V430.433V430.451V430.468V430.486V430.503V430.521V430.539V430.556V430.574V430.591V430.609V430.626V430.644V430.661V430.679V430.696V430.714V430.731V430.749V430.766V430.783V430.801V430.818V430.835V430.853V430.87V430.887V430.905V430.922V430.939V430.956V430.974V430.991V431.008V431.025V431.042V431.059V431.077V431.094V431.111V431.128V431.145V431.162V431.179V431.196V431.213V431.23V431.247V431.264V431.281V431.298V431.315V431.332V431.349V431.366V431.383V431.4V431.416V431.433V431.45V431.467V431.484V431.501V431.517V431.534V431.551V431.568V431.584V431.601V431.618V431.634V431.651V431.668V431.684V431.701V431.718V431.734V431.751V431.768V431.784V431.801V431.817V431.834V431.85V431.867V431.883V431.9V431.916V431.933V431.949V431.966V431.982V431.999V432.015V432.031V432.048V432.064V432.08V432.097V432.113V432.13V432.146V432.162V432.178V432.195V432.211V432.227V432.243V432.26V432.276V432.292V432.308V432.325V432.341V432.357V432.373V432.389V432.405V432.421V432.438V432.454V432.47V432.486V432.502V432.518V432.534V432.55V432.566V432.582V432.598V432.614V432.63V432.646V432.662V432.678V432.694V432.71V432.726V432.742V432.758V432.774V432.789V432.805V432.821V432.837V432.853V432.869V432.884V432.9V432.916V432.932V432.948V432.963V432.979V432.995V433.011V433.026V433.042V433.058V433.074V433.089V433.105V433.121V433.136V433.152V433.168V433.183V433.199V433.215V433.23V433.246V433.261V433.277V433.293V433.308V433.324V433.339V433.355V433.37V433.386V433.401V433.417V433.432V433.448V433.463V433.479V433.494V433.51V433.525V433.541V433.556V433.572V433.587V433.602V433.618V433.633V433.649V433.664V433.679V433.695V433.71V433.725V433.741V433.756V433.771V433.787V433.802V433.817V433.833V433.848V433.863V433.878V433.894V433.909V433.924V433.939V433.955V433.97V433.985V434V434.015V434.031V434.046V434.061V434.076V434.091V434.107V434.122V434.137V434.152V434.167V434.182V434.197V434.213V434.228V434.243V434.258V434.273V434.288V434.303V434.318V434.333V434.348V434.363V434.378V434.393V434.408V434.423V434.438V434.454V434.469V434.484V434.499V434.514V434.528V434.543V434.558V434.573V434.588V434.603V434.618V434.633V434.648V434.663V434.678V434.693V434.708V434.723V434.738V434.753V434.768V434.782V434.797V434.812V434.827V434.842V434.857V434.872V434.887V434.901V434.916V434.931V434.946V434.961V434.976V434.99V435.005V435.02V435.035V435.05V435.064V435.079V435.094V435.109V435.124V435.138V435.153V435.168V435.183V435.197V435.212V435.227V435.242V435.256V435.271V435.286V435.301V435.315V435.33V435.345V435.36V435.374V435.389V435.404V435.418V435.433V435.448V435.463V435.477V435.492V435.507V435.521V435.536V435.551V435.565V435.58V435.595V435.609V435.624V435.639V435.653V435.668V435.683V435.697V435.712V435.726V435.741V435.756V435.77V435.785V435.8V435.814V435.829V435.844V435.858V435.873V435.887V435.902V435.917V435.931V435.946V435.96V435.975V435.99V436.004V436.019V436.033V436.048V436.063V436.077V436.092V436.106V436.121V436.135V436.15V436.165V436.179V436.194V436.208V436.223V436.237V436.252V436.267V436.281V436.296V436.31V436.325V436.339V436.354V436.369V436.383V436.398V436.412V436.427V436.441V436.456V436.47V436.485V436.499V436.514V436.529V436.543V436.558V436.572V436.587V436.601V436.616V436.63V436.645V436.659V436.674V436.689V436.703V436.718V436.732V436.747V436.761V436.776V436.79V436.805V436.819V436.834V436.849V436.863V436.878V436.892V436.907V436.921V436.936V436.95V436.965V436.979V436.994V437.008V437.023V437.038V437.052V437.067V437.081V437.096V437.11V437.125V437.139V437.154V437.169V437.183V437.198V437.212V437.227V437.241V437.256V437.27V437.285V437.3V437.314V437.329V437.343V437.358V437.372V437.387V437.402V437.416V437.431V437.445V437.46V437.474V437.489V437.504V437.518V437.533V437.547V437.562V437.577V437.591V437.606V437.62V437.635V437.65V437.664V437.679V437.693V437.708V437.723V437.737V437.752V437.767V437.781V437.796V437.811V437.825V437.84V437.854V437.869V437.884V437.898V437.913V437.928V437.942V437.957V437.972V437.986V438.001V438.016V438.03V438.045V438.06V438.074V438.089C13.5 438.336 13.3776 438.524 13.2341 438.616C13.1036 438.699 12.9517 438.71 12.7931 438.596C11.4034 437.597 10.5 435.968 10.5 434.128C10.5 432.287 11.4034 430.658 12.7931 429.659Z" fill="#EDEBDE" stroke="#EDEBDE"/>
<path d="M35.2069 429.659L35.2069 429.659C36.5967 430.658 37.5 432.287 37.5 434.128C37.5 435.968 36.5967 437.597 35.2069 438.596L35.4769 438.972L35.2069 438.596C35.0483 438.71 34.8964 438.699 34.7659 438.616C34.6224 438.524 34.5 438.336 34.5 438.089V438.074V438.06V438.045V438.03V438.016V438.001V437.986V437.972V437.957V437.942V437.928V437.913V437.898V437.884V437.869V437.854V437.84V437.825V437.811V437.796V437.781V437.767V437.752V437.737V437.723V437.708V437.693V437.679V437.664V437.65V437.635V437.62V437.606V437.591V437.577V437.562V437.547V437.533V437.518V437.504V437.489V437.474V437.46V437.445V437.431V437.416V437.402V437.387V437.372V437.358V437.343V437.329V437.314V437.3V437.285V437.27V437.256V437.241V437.227V437.212V437.198V437.183V437.169V437.154V437.139V437.125V437.11V437.096V437.081V437.067V437.052V437.038V437.023V437.008V436.994V436.979V436.965V436.95V436.936V436.921V436.907V436.892V436.878V436.863V436.849V436.834V436.819V436.805V436.79V436.776V436.761V436.747V436.732V436.718V436.703V436.689V436.674V436.659V436.645V436.63V436.616V436.601V436.587V436.572V436.558V436.543V436.529V436.514V436.499V436.485V436.47V436.456V436.441V436.427V436.412V436.398V436.383V436.369V436.354V436.339V436.325V436.31V436.296V436.281V436.267V436.252V436.237V436.223V436.208V436.194V436.179V436.165V436.15V436.135V436.121V436.106V436.092V436.077V436.063V436.048V436.033V436.019V436.004V435.99V435.975V435.96V435.946V435.931V435.917V435.902V435.887V435.873V435.858V435.844V435.829V435.814V435.8V435.785V435.77V435.756V435.741V435.726V435.712V435.697V435.683V435.668V435.653V435.639V435.624V435.609V435.595V435.58V435.565V435.551V435.536V435.521V435.507V435.492V435.477V435.463V435.448V435.433V435.418V435.404V435.389V435.374V435.36V435.345V435.33V435.315V435.301V435.286V435.271V435.256V435.242V435.227V435.212V435.197V435.183V435.168V435.153V435.138V435.124V435.109V435.094V435.079V435.064V435.05V435.035V435.02V435.005V434.99V434.976V434.961V434.946V434.931V434.916V434.901V434.887V434.872V434.857V434.842V434.827V434.812V434.797V434.782V434.768V434.753V434.738V434.723V434.708V434.693V434.678V434.663V434.648V434.633V434.618V434.603V434.588V434.573V434.558V434.543V434.528V434.514V434.499V434.484V434.469V434.454V434.438V434.423V434.408V434.393V434.378V434.363V434.348V434.333V434.318V434.303V434.288V434.273V434.258V434.243V434.228V434.213V434.197V434.182V434.167V434.152V434.137V434.122V434.107V434.091V434.076V434.061V434.046V434.031V434.015V434V433.985V433.97V433.955V433.939V433.924V433.909V433.894V433.878V433.863V433.848V433.833V433.817V433.802V433.787V433.771V433.756V433.741V433.725V433.71V433.695V433.679V433.664V433.649V433.633V433.618V433.602V433.587V433.572V433.556V433.541V433.525V433.51V433.494V433.479V433.463V433.448V433.432V433.417V433.401V433.386V433.37V433.355V433.339V433.324V433.308V433.293V433.277V433.261V433.246V433.23V433.215V433.199V433.183V433.168V433.152V433.136V433.121V433.105V433.089V433.074V433.058V433.042V433.026V433.011V432.995V432.979V432.963V432.948V432.932V432.916V432.9V432.884V432.869V432.853V432.837V432.821V432.805V432.789V432.774V432.758V432.742V432.726V432.71V432.694V432.678V432.662V432.646V432.63V432.614V432.598V432.582V432.566V432.55V432.534V432.518V432.502V432.486V432.47V432.454V432.438V432.421V432.405V432.389V432.373V432.357V432.341V432.325V432.308V432.292V432.276V432.26V432.243V432.227V432.211V432.195V432.178V432.162V432.146V432.13V432.113V432.097V432.08V432.064V432.048V432.031V432.015V431.999V431.982V431.966V431.949V431.933V431.916V431.9V431.883V431.867V431.85V431.834V431.817V431.801V431.784V431.768V431.751V431.734V431.718V431.701V431.684V431.668V431.651V431.634V431.618V431.601V431.584V431.568V431.551V431.534V431.517V431.501V431.484V431.467V431.45V431.433V431.416V431.4V431.383V431.366V431.349V431.332V431.315V431.298V431.281V431.264V431.247V431.23V431.213V431.196V431.179V431.162V431.145V431.128V431.111V431.094V431.077V431.059V431.042V431.025V431.008V430.991V430.974V430.956V430.939V430.922V430.905V430.887V430.87V430.853V430.835V430.818V430.801V430.783V430.766V430.749V430.731V430.714V430.696V430.679V430.661V430.644V430.626V430.609V430.591V430.574V430.556V430.539V430.521V430.503V430.486V430.468V430.451V430.433V430.415V430.398V430.38V430.362V430.344V430.327V430.309V430.291V430.273V430.255V430.238V430.22V430.202V430.184V430.166C34.5 429.919 34.6224 429.731 34.766 429.639C34.8964 429.556 35.0483 429.545 35.2069 429.659ZM35.4986 429.253L35.4988 429.253L35.4986 429.253Z" fill="#EDEBDE" stroke="#EDEBDE"/>
</svg>
