<svg width="35" height="35" viewBox="0 0 35 35" fill="none" xmlns="http://www.w3.org/2000/svg">
<path d="M27.2642 5.46875C26.6803 5.47011 26.1023 5.58226 25.5638 5.79875C25.0253 6.01523 24.5369 6.33176 24.1267 6.73008L7.05372 23.0912L6.98678 23.415L5.80561 29.106L5.46875 30.625L7.0548 30.3022L12.993 29.1702L13.3299 29.105L30.4028 12.7439C30.8195 12.3515 31.1505 11.8834 31.3765 11.367C31.6024 10.8507 31.7187 10.2964 31.7187 9.73648C31.7187 9.17656 31.6024 8.62226 31.3765 8.1059C31.1505 7.58955 30.8195 7.12149 30.4028 6.72905C29.9924 6.33079 29.5037 6.01438 28.965 5.79807C28.4263 5.58176 27.8483 5.46983 27.2642 5.46875ZM27.2642 7.44094C27.8084 7.44094 28.3568 7.67892 28.8837 8.1849C29.9343 9.19066 29.9343 10.2823 28.8837 11.2891L28.1085 11.9999L24.9019 8.92784L25.6447 8.1849C26.1727 7.67892 26.7201 7.44094 27.2642 7.44094ZM23.3849 10.3837L26.5894 13.4558L13.5329 25.9677C12.828 24.646 11.7058 23.5713 10.3262 22.8966L23.3849 10.3837ZM8.94423 24.5791C9.58323 24.8255 10.1637 25.1931 10.6507 25.6598C11.1377 26.1266 11.5213 26.6829 11.7784 27.2952L8.23489 27.974L8.94423 24.5791Z" fill="black" fill-opacity="0.7"/>
<path d="M8.94423 24.5791C9.58323 24.8255 10.1637 25.1931 10.6507 25.6598C11.1377 26.1266 11.5213 26.6829 11.7784 27.2952L8.23489 27.974L8.94423 24.5791Z" fill="black" fill-opacity="0.7"/>
<path d="M27.2642 7.44094C27.8084 7.44094 28.3568 7.67892 28.8837 8.1849C29.9343 9.19066 29.9343 10.2823 28.8837 11.2891L28.1085 11.9999L24.9019 8.92784L25.6447 8.1849C26.1727 7.67892 26.7201 7.44094 27.2642 7.44094Z" fill="black" fill-opacity="0.7"/>
</svg>
