<svg width="35" height="35" viewBox="0 0 35 35" fill="none" xmlns="http://www.w3.org/2000/svg">
<path d="M13.3215 30.2945V25.8353C13.3215 24.697 14.251 23.7742 15.3976 23.7742H19.5891C20.1398 23.7742 20.6679 23.9914 21.0572 24.3779C21.4466 24.7644 21.6653 25.2887 21.6653 25.8353V30.2945C21.6618 30.7677 21.8488 31.2228 22.1846 31.5586C22.5205 31.8945 22.9775 32.0834 23.4542 32.0834H26.3138C27.6494 32.0868 28.9314 31.5625 29.877 30.6262C30.8226 29.6899 31.3541 28.4185 31.3541 27.0927V14.3892C31.3541 13.3182 30.8759 12.3023 30.0483 11.6152L20.3204 3.90233C18.6282 2.55001 16.2036 2.59367 14.5619 4.00603L5.05598 11.6152C4.18933 12.282 3.67135 13.3009 3.64575 14.3892V27.0797C3.64575 29.8431 5.90235 32.0834 8.68601 32.0834H11.4803C12.4705 32.0834 13.2751 31.2903 13.2823 30.3074L13.3215 30.2945Z" fill="#036666"/>
</svg>
