<svg width="40" height="41" viewBox="0 0 40 41" fill="none" xmlns="http://www.w3.org/2000/svg">
<g clip-path="url(#clip0_724_848)">
<path d="M26.2167 5.5H13.7833L5 14.2833V26.7083L13.7833 35.5H26.2083L35 26.7167V14.2833L26.2167 5.5ZM20 29.3333C18.8083 29.3333 17.8333 28.3667 17.8333 27.1667C17.8333 25.975 18.8083 25 20 25C20.5642 25.0156 21.1001 25.2508 21.4937 25.6554C21.8872 26.06 22.1074 26.6022 22.1074 27.1667C22.1074 27.7311 21.8872 28.2733 21.4937 28.6779C21.1001 29.0825 20.5642 29.3177 20 29.3333ZM21.6667 22.1667H18.3333V12.1667H21.6667V22.1667Z" />
</g>
<defs>
<clipPath id="clip0_724_848">
<rect width="40" height="40" fill="white" transform="translate(0 0.5)"/>
</clipPath>
</defs>
</svg>
