<svg width="40" height="41" viewBox="0 0 40 41" fill="none" xmlns="http://www.w3.org/2000/svg">
<path d="M30.8241 5.54004H29.08V7.70801C29.08 9.52402 27.5999 11.004 25.7761 11.004H13.92C12.104 11.004 10.6241 9.52402 10.6241 7.70801V5.54004H9.16006C6.99209 5.54004 5.23193 7.29199 5.23193 9.44394V35.796C5.23193 37.948 6.99209 39.7 9.16006 39.7H30.8241C32.9999 39.7 34.7681 37.948 34.7681 35.796V9.44394C34.7681 7.29199 32.9999 5.54004 30.8241 5.54004ZM25.528 13.996C25.8399 14.316 25.8319 14.82 25.52 15.132L20.896 19.74C20.736 19.892 20.536 19.9721 20.328 19.9721C20.128 19.9721 19.92 19.892 19.7601 19.74L17.48 17.4439C17.1681 17.132 17.1681 16.628 17.48 16.316C17.7921 15.996 18.304 16.004 18.6159 16.316L20.336 18.0439L24.3921 13.996C24.704 13.684 25.2159 13.684 25.528 13.996ZM14.2319 13.42C14.2319 12.9721 14.5921 12.62 15.0319 12.62H21.912C22.3601 12.62 22.712 12.9721 22.712 13.42C22.712 13.86 22.3601 14.22 21.912 14.22H15.8319V21.628H23.2399V19.124C23.2399 18.684 23.5999 18.324 24.0399 18.324C24.488 18.324 24.8399 18.684 24.8399 19.124V22.428C24.8399 22.868 24.488 23.228 24.0399 23.228H15.0319C14.5921 23.228 14.2319 22.868 14.2319 22.428V13.42ZM13.672 26.124H26.32C26.7601 26.124 27.12 26.476 27.12 26.924C27.12 27.3641 26.7601 27.724 26.32 27.724H13.672C13.2319 27.724 12.872 27.3641 12.872 26.924C12.872 26.476 13.2319 26.124 13.672 26.124ZM29.1761 34.388H10.8159C10.3761 34.388 10.0159 34.028 10.0159 33.588C10.0159 33.148 10.3761 32.788 10.8159 32.788H29.1761C29.6241 32.788 29.9761 33.148 29.9761 33.588C29.9761 34.028 29.6241 34.388 29.1761 34.388ZM29.1761 31.052H10.8159C10.3761 31.052 10.0159 30.7 10.0159 30.252C10.0159 29.812 10.3761 29.452 10.8159 29.452H29.1761C29.6241 29.452 29.9761 29.812 29.9761 30.252C29.9761 30.7 29.6241 31.052 29.1761 31.052Z" />
<path d="M25.7761 3.66802H22.952C22.5761 2.30806 21.32 1.30005 19.8479 1.30005C18.3761 1.30005 17.112 2.30806 16.736 3.66802H13.92C12.9841 3.66802 12.2241 4.43608 12.2241 5.37212V7.70806C12.2241 8.64399 12.9841 9.40406 13.92 9.40406H25.7761C26.72 9.40406 27.48 8.644 27.48 7.70806V5.37212C27.48 4.43608 26.72 3.66802 25.7761 3.66802ZM19.856 5.5481C19.2081 5.5481 18.696 5.02808 18.696 4.38804C18.696 3.7481 19.2081 3.22808 19.856 3.22808C20.496 3.22808 21.0081 3.7481 21.0081 4.38804C21.0081 5.02807 20.496 5.5481 19.856 5.5481Z"/>
</svg>
